# xmcd CD database file generated by OrangeCD 5.2
#
# Track frame offsets:
#	150
#	14817
#	36227
#	49042
#	63979
#	83209
#	94111
#	108912
#	122743
#	134839
#
# Disc length: 1969 seconds
#
# Revision: 0
# Processed by: cddbd v1.5PL3 Copyright (c) Steve Scherf et al.
# Submitted via: OrangeCD 5.2
#
DISCID=8b07af0a
DTITLE=Alexis - Angels Don't Always Have Wings
DYEAR=2002
DGENRE=Rock
TTITLE0=It's Not What You Do
TTITLE1=Angels Don't Always Have Wings
TTITLE2=Sorry
TTITLE3=Sweet Talkin' Man
TTITLE4=Rest In Pieces
TTITLE5=Bon Voyage
TTITLE6=Hold Me
TTITLE7=If You Wanna Change My Mind
TTITLE8=His Heart's in the Right Place
TTITLE9=Shadow in the Dark
EXTD=
EXTT0=
EXTT1=
EXTT2=
EXTT3=
EXTT4=
EXTT5=
EXTT6=
EXTT7=
EXTT8=
EXTT9=
PLAYORDER=
